<?xml version="1.0" encoding="UTF-8"?>
<svg xmlns="http://www.w3.org/2000/svg" xmlns:xlink="http://www.w3.org/1999/xlink" width="998px" height="665px"
  viewBox="0 0 499 333" version="1.1">
  <g id="surface1">
    <path style=" stroke:none;fill-rule:nonzero;fill:rgb(99.607843%,99.607843%,99.607843%);fill-opacity:1;"
      d="M 213.035156 272.019531 C 212.117188 271.945312 209.34375 271.660156 206.867188 271.382812 C 174.210938 267.75 143.792969 250.398438 123.972656 224.105469 C 104.117188 197.761719 95.886719 165.6875 100.5625 132.847656 C 106.398438 91.867188 133.488281 56.191406 171.617188 39.28125 C 207.234375 23.484375 248.757812 25.878906 282.253906 45.664062 C 312.660156 63.625 333.707031 93.726562 340.175781 128.507812 C 341.621094 136.277344 341.992188 140.789062 341.992188 150.542969 C 341.992188 160.296875 341.621094 164.808594 340.175781 172.574219 C 335.09375 199.890625 320.945312 224.59375 300.035156 242.671875 C 281.644531 258.566406 259.234375 268.425781 234.699219 271.40625 C 230.574219 271.910156 216.585938 272.304688 213.035156 272.019531 Z M 234.535156 259.386719 C 266.421875 255.296875 294.472656 238.046875 312.1875 211.632812 C 322.273438 196.59375 327.894531 181.183594 330.265625 162.058594 C 330.90625 156.902344 330.800781 142.644531 330.085938 137.1875 C 326.226562 107.832031 312.28125 82.867188 289.484375 64.5 C 273.855469 51.910156 254.652344 43.875 234.035156 41.300781 C 227.683594 40.511719 214.136719 40.523438 208.035156 41.328125 C 183.078125 44.617188 161.265625 55.265625 143.789062 72.691406 C 126.3125 90.121094 115.390625 112.597656 112.289062 137.523438 C 111.5 143.882812 111.511719 157.449219 112.316406 163.5625 C 114.753906 182.128906 121.078125 198.613281 131.417969 213.363281 C 149.617188 239.324219 178.1875 256.246094 209.367188 259.523438 C 211.199219 259.714844 213.300781 259.933594 214.035156 260.007812 C 216.988281 260.304688 230.601562 259.890625 234.535156 259.386719 Z M 234.535156 259.386719 " />
    <path style=" stroke:none;fill-rule:nonzero;fill:rgb(0%,63.137255%,90.588235%);fill-opacity:1;"
      d="M 214.035156 260.007812 C 213.300781 259.933594 211.199219 259.714844 209.367188 259.523438 C 165.902344 254.953125 128.90625 224.195312 116.21875 182.089844 C 114.621094 176.78125 113.113281 169.621094 112.316406 163.5625 C 111.511719 157.449219 111.5 143.882812 112.289062 137.523438 C 115.390625 112.597656 126.3125 90.121094 143.789062 72.691406 C 161.265625 55.265625 183.078125 44.617188 208.035156 41.328125 C 214.136719 40.523438 227.683594 40.511719 234.035156 41.300781 C 260.652344 44.625 284.605469 56.972656 302.179688 76.429688 C 313.609375 89.082031 321.386719 102.769531 326.179688 118.660156 C 329.355469 129.195312 330.644531 138.1875 330.679688 150.042969 C 330.703125 160.191406 330.027344 166.613281 328.015625 175.25 C 322.148438 200.4375 307.730469 222.566406 287.035156 238.144531 C 271.570312 249.785156 254.015625 256.886719 234.535156 259.386719 C 230.601562 259.890625 216.988281 260.304688 214.035156 260.007812 Z M 214.035156 260.007812 " />
  </g>
</svg>